# xmcd
#
# Track frame offsets: 
#        150
#        20479
#        60088
#        88293
#        105689
#        129690
#        147944
#        175371
#        195199
#        212852
#        226320
#        244267
#        264972
#
# Disc length: 4101 seconds
#
# Revision: 0
# Processed by: cddbd v1.5.2PL0 Copyright (c) Steve Scherf et al.
# Submitted via: ExactAudioCopy v0.95b3
#
DISCID=b210030d
DTITLE=The Rolling Stones  - Girls, Pills And Powders [CD4]
DYEAR=1900
DGENRE=
TTITLE0=Everything Is Turning To Gold (Take 2)
TTITLE1=Miss You (Take 4)
TTITLE2=When The Whip Comes Down (Take 2)
TTITLE3=Lies (Take 3)
TTITLE4=Far Away Eyes (Take 2)
TTITLE5=Black Limousine (Take 3)
TTITLE6=Up Against The Wall (Take 2)
TTITLE7=I Can't Help It (Take 1)
TTITLE8=Fiji Jim (Take 3)
TTITLE9=So Young
TTITLE10=When You're Gone
TTITLE11=Disco Music (Take 2)
TTITLE12=Everything Is Turning To Gold (Take 1)
EXTD=
EXTT0=
EXTT1=
EXTT2=
EXTT3=
EXTT4=
EXTT5=
EXTT6=
EXTT7=
EXTT8=
EXTT9=
EXTT10=
EXTT11=
EXTT12=
PLAYORDER=
